<svg xmlns="http://www.w3.org/2000/svg" width="824.834" height="826.059" viewBox="59.45 104.605 824.834 826.059"><defs><linearGradient id="b" gradientTransform="rotate(-90 .5 .5)"><stop offset="0%" stop-color="#1e0d11"/><stop offset="100%" stop-color="#511896"/></linearGradient><clipPath id="a"><path fill="currentColor" d="M870.5 638.5q-40.5 138.5-163 240t-248 5.5Q334 788 210 719.5T63 492Q40 333 166 236.5T433 111q141-29 231 73.5t168.5 209q78.5 106.5 38 245Z"/></clipPath></defs><g clip-path="url(#a)"><path fill="url(#b)" d="M870.5 638.5q-40.5 138.5-163 240t-248 5.5Q334 788 210 719.5T63 492Q40 333 166 236.5T433 111q141-29 231 73.5t168.5 209q78.5 106.5 38 245Z"/></g></svg>