<svg xmlns="http://www.w3.org/2000/svg" width="874.528" height="870.304" viewBox="77.498 70.371 874.528 870.304"><defs><linearGradient id="b" gradientTransform="rotate(-90 .5 .5)"><stop offset="0%" stop-color="#1e0d11"/><stop offset="100%" stop-color="#511896"/></linearGradient><clipPath id="a"><path fill="currentColor" d="M899.5 630q-89.5 130-204 229t-275 78q-160.5-21-265-147t-69-277Q122 362 197 233T425.5 77.5Q579 51 721 123t205 224.5Q989 500 899.5 630Z"/></clipPath></defs><g clip-path="url(#a)"><path fill="url(#b)" d="M899.5 630q-89.5 130-204 229t-275 78q-160.5-21-265-147t-69-277Q122 362 197 233T425.5 77.5Q579 51 721 123t205 224.5Q989 500 899.5 630Z"/></g></svg>